#!OML:ASF F:\VICON\USERDATA\INSTALL\rory3\rory3.ASF
:FULLY-SPECIFIED
:DEGREES
543
root -20.4528 18.0072 12.7948 152.828 -93.6802 -155.468
lowerback 10.0596 0.154772 -1.55442
upperback 0.361982 0.0918836 1.69594
thorax -5.27483 0.0923475 2.63765
lowerneck -24.9276 -0.700193 -6.70367
upperneck 29.7957 -0.0410408 4.36311
head 14.4295 -0.281208 2.8925
rclavicle -2.13694e-015 -2.38542e-015
rhumerus -40.7739 -22.0537 -72.5941
rradius 24.2847
rwrist 11.137
rhand -14.8793 9.07985
rfingers 7.12502
rthumb 11.2811 -20.5968
lclavicle -2.13694e-015 -2.38542e-015
lhumerus -32.5507 0.660079 86.8222
lradius 31.7762
lwrist -4.04783
lhand -14.9938 26.3103
lfingers 7.12502
lthumb 11.1707 55.9929
rfemur -13.8644 -0.332969 21.5911
rtibia 22.3639
rfoot -3.95171 -3.06675
rtoes 15.7852
lfemur 7.80894 -3.66827 -22.5686
ltibia 37.494
lfoot 16.0599 -10.38
ltoes 2.3991
544
root -20.5832 18.0224 12.7694 158.189 -93.7282 -160.86
lowerback 10.1044 0.198123 -1.33744
upperback 0.375255 0.177677 1.78903
thorax -5.29061 0.129811 2.60034
lowerneck -24.9937 -0.67054 -6.66406
upperneck 29.6653 0.0186217 4.31712
head 14.3818 -0.251191 2.87571
rclavicle 8.19987e-015 8.74653e-015
rhumerus -40.8118 -22.6564 -72.3138
rradius 24.6219
rwrist 12.0824
rhand -14.5361 9.70562
rfingers 7.12502
rthumb 11.6122 -19.9526
lclavicle 8.19987e-015 8.74653e-015
lhumerus -32.7546 -0.0660522 87.1608
lradius 31.5102
lwrist -4.27312
lhand -16.6158 26.8056
lfingers 7.12502
lthumb 9.6061 56.5666
rfemur -13.1872 -0.43504 22.0094
rtibia 22.0598
rfoot -4.27601 -3.15811
rtoes 17.1786
lfemur 6.3618 -3.29083 -21.8711
ltibia 39.8084
lfoot 17.7802 -11.4289
ltoes 11.4379
545
root -20.7158 18.0365 12.7467 165.756 -93.8858 -168.685
lowerback 10.3766 0.223275 -0.85671
upperback 0.422498 0.266705 1.86209
thorax -5.39665 0.161748 2.39309
lowerneck -25.0476 -0.682068 -6.51927
upperneck 29.5967 0.00914702 4.15257
head 14.3645 -0.258641 2.78044
rclavicle 1.50828e-014 -7.95139e-016
rhumerus -40.2364 -21.1871 -73.3159
rradius 25.053
rwrist 10.6223
rhand -14.4172 9.55692
rfingers 7.12502
rthumb 11.7268 -20.0948
lclavicle 1.50828e-014 -7.95139e-016
lhumerus -33.034 -0.955082 87.5217
lradius 31.3972
lwrist -4.46742
lhand -15.6902 27.1467
lfingers 7.12502
lthumb 10.499 56.8645
rfemur -12.2663 -0.965895 22.5815
rtibia 21.7406
rfoot -4.64871 -2.93167
rtoes 18.0387
lfemur 5.22046 -3.17158 -21.0932
ltibia 42.0374
lfoot 18.7556 -11.9997
ltoes 14.9676
546
root -20.8459 18.0469 12.7285 171.798 -94.063 -174.926
lowerback 10.5392 0.216956 -0.443853
upperback 0.499891 0.307399 1.9396
thorax -5.40662 0.170298 2.23517
lowerneck -25.2057 -0.636736 -6.34549
upperneck 29.6232 0.0521758 4.05186
head 14.407 -0.233095 2.72044
rclavicle -1.28962e-014 -3.02153e-014
rhumerus -39.7115 -19.8729 -74.2095
rradius 25.557
rwrist 9.71177
rhand -14.2989 9.21151
rfingers 7.12502
rthumb 11.8409 -20.4337
lclavicle -1.28962e-014 -3.02153e-014
lhumerus -33.2064 -1.64533 87.8208
lradius 31.3074
lwrist -4.73202
lhand -14.8316 26.94
lfingers 7.12502
lthumb 11.3272 56.6141
rfemur -11.4346 -1.32712 23.0801
rtibia 21.4418
rfoot -4.92456 -2.71107
rtoes 18.5571
lfemur 4.04153 -3.08269 -20.4498
ltibia 44.1869
lfoot 18.7943 -11.9787
ltoes 11.6263
547
root -20.965 18.0563 12.7085 176.502 -94.1992 -179.766
lowerback 10.7568 0.236943 -0.117619
upperback 0.536395 0.374616 1.99393
thorax -5.49135 0.194914 2.0982
lowerneck -25.2014 -0.57942 -6.34102
upperneck 29.5141 0.0838317 4.21617
head 14.3546 -0.190016 2.79086
rclavicle -2.5345e-015 0
rhumerus -39.3155 -19.0129 -74.8404
rradius 26.0124
rwrist 9.28057
rhand -14.2866 9.08902
rfingers 7.12502
rthumb 11.8527 -20.5555
lclavicle -2.5345e-015 0
lhumerus -33.3209 -2.24694 88.0353
lradius 31.1686
lwrist -5.22813
lhand -14.0221 26.6514
lfingers 7.12502
lthumb 12.1078 56.281
rfemur -10.4219 -0.174588 23.5251
rtibia 20.7074
rfoot -4.97042 -3.86743
rtoes 19.8837
lfemur 2.70256 -2.99765 -19.8694
ltibia 46.4489
lfoot 18.2225 -11.4754
ltoes 8.32169
548
root -21.0747 18.0619 12.6879 181.526 -94.3715 -184.949
lowerback 11.1182 0.308466 0.256036
upperback 0.525239 0.523017 2.0908
thorax -5.70896 0.259067 1.96668
lowerneck -25.0306 -0.609192 -6.54018
upperneck 29.339 0.0660771 4.37303
head 14.2423 -0.192767 2.87911
rclavicle 9.39258e-015 -4.77083e-015
rhumerus -39.0009 -18.0893 -75.3632
rradius 26.4964
rwrist 8.6021
rhand -14.5487 8.90982
rfingers 7.12502
rthumb 11.6 -20.7491
lclavicle 9.39258e-015 -4.77083e-015
lhumerus -33.4444 -2.70018 88.2776
lradius 30.9783
lwrist -6.08199
lhand -14.3528 26.161
lfingers 7.12502
lthumb 11.789 55.8092
rfemur -9.52071 -0.907539 24.0252
rtibia 19.9767
rfoot -4.91889 -3.31811
rtoes 22.1115
lfemur 1.37055 -2.88585 -19.203
ltibia 48.5633
lfoot 17.2117 -10.9818
ltoes 5.49534
549
root -21.1825 18 12.674 185.96 -94.4269 -189.515
lowerback 11.3066 0.431804 0.559509
upperback 0.565471 0.729917 2.18577
thorax -5.77654 0.352418 1.86191
lowerneck -25.017 -0.674742 -6.62158
upperneck 29.2552 -0.00419848 4.41379
head 14.2081 -0.22284 2.89414
rclavicle -2.01269e-015 -1.66979e-014
rhumerus -38.5398 -16.9771 -75.9528
rradius 26.8882
rwrist 7.8459
rhand -14.7767 8.72893
rfingers 7.12502
rthumb 11.3801 -20.9423
lclavicle -2.01269e-015 -1.66979e-014
lhumerus -33.5599 -3.0983 88.5065
lradius 30.8928
lwrist -6.78622
lhand -15.9495 25.5674
lfingers 7.12502
lthumb 10.2489 55.2977
rfemur -9.13946 -3.93244 25.2841
rtibia 19.147
rfoot -3.82937 -1.83807
rtoes -5.40008
lfemur -0.0200852 -2.65005 -18.6581
ltibia 50.71
lfoot 15.6794 -10.6716
ltoes 1.77718
550
root -21.3074 18.0084 12.6617 188.466 -94.4382 -192.217
lowerback 11.4197 0.543687 0.759158
upperback 0.667075 0.904331 2.25842
thorax -5.73595 0.431663 1.79687
lowerneck -24.9846 -0.566408 -6.63605
upperneck 29.0492 0.193015 4.35183
head 14.0974 -0.140926 2.90253
rclavicle 1.74682e-014 -1.59028e-014
rhumerus -37.9792 -16.1148 -76.3646
rradius 27.0585
rwrist 7.40754
rhand -14.9205 8.79982
rfingers 7.12502
rthumb 11.2415 -20.879
lclavicle 1.74682e-014 -1.59028e-014
lhumerus -33.6956 -3.60265 88.8708
lradius 30.8652
lwrist -6.94408
lhand -17.3117 25.2558
lfingers 7.12502
lthumb 8.93454 55.0466
rfemur -8.11929 -3.57166 25.5096
rtibia 18.526
rfoot -3.94563 -2.13048
rtoes -3.42355
lfemur -1.06161 -2.40157 -18.3246
ltibia 52.395
lfoot 14.1624 -10.2598
ltoes -0.665938
551
root -21.4236 18.0109 12.6521 190.963 -94.5016 -194.911
lowerback 11.6335 0.609812 1.08361
upperback 0.725922 1.03546 2.27767
thorax -5.79164 0.486171 1.61153
lowerneck -24.7856 -0.233361 -6.50615
upperneck 28.7072 0.70338 4.12653
head 13.8729 0.0720366 2.87167
rclavicle 8.15017e-015 -3.97569e-015
rhumerus -37.4495 -15.6117 -76.6411
rradius 27.1518
rwrist 7.33174
rhand -14.9822 9.00518
rfingers 7.12502
rthumb 11.1819 -20.6769
lclavicle 8.15017e-015 -3.97569e-015
lhumerus -33.7803 -3.93063 89.0532
lradius 30.6932
lwrist -7.24576
lhand -18.085 24.8703
lfingers 7.12502
lthumb 8.18829 54.6917
rfemur -7.17306 -3.1501 25.7816
rtibia 17.9556
rfoot -4.09444 -2.58296
rtoes -3.05925
lfemur -2.10296 -2.11331 -17.9561
ltibia 53.877
lfoot 12.7372 -9.7962
ltoes -2.61852
552
root -21.5385 18.0119 12.6422 192.861 -94.4085 -196.965
lowerback 11.803 0.722595 1.31326
upperback 0.775335 1.21552 2.26399
thorax -5.83302 0.567199 1.43663
lowerneck -24.6882 -0.0135769 -6.35883
upperneck 28.5414 1.03324 3.91839
head 13.7614 0.206616 2.81731
rclavicle -6.21202e-016 -8.74653e-015
rhumerus -36.9215 -15.1173 -76.8506
rradius 27.2166
rwrist 7.44804
rhand -14.8876 9.34737
rfingers 7.12502
rthumb 11.2732 -20.3297
lclavicle -6.21202e-016 -8.74653e-015
lhumerus -33.8373 -3.80822 89.0308
lradius 30.5221
lwrist -7.78563
lhand -18.6908 24.9146
lfingers 7.12502
lthumb 7.60364 54.7579
rfemur -6.54164 -2.3422 25.9559
rtibia 17.9672
rfoot -4.52532 -3.29787
rtoes -0.766816
lfemur -3.01508 -1.63114 -17.7181
ltibia 54.9582
lfoot 11.1306 -9.61057
ltoes -6.51159
553
root -21.6551 18.0129 12.6299 194.349 -94.2601 -198.577
lowerback 11.9005 0.876068 1.4022
upperback 0.812725 1.4301 2.23395
thorax -5.8486 0.669283 1.31814
lowerneck -24.448 -0.00610168 -6.3913
upperneck 28.3827 1.02073 3.98335
head 13.6439 0.210822 2.83856
rclavicle -1.39646e-014 1.03368e-014
rhumerus -36.3956 -14.5981 -77.1191
rradius 27.2212
rwrist 7.58442
rhand -14.8047 9.61376
rfingers 7.12502
rthumb 11.3532 -20.0589
lclavicle -1.39646e-014 1.03368e-014
lhumerus -33.9889 -3.3977 88.9214
lradius 30.4754
lwrist -8.5219
lhand -18.7457 24.8667
lfingers 7.12502
lthumb 7.55063 54.7119
rfemur -6.16463 -4.6532 26.0046
rtibia 18.0558
rfoot -5.13021 -1.18747
rtoes -0.488901
lfemur -3.98853 -1.39734 -17.5597
ltibia 55.9266
lfoot 10.2092 -8.72173
ltoes -5.57713
